General                          : ChattChitto RG - Movies [R2L]
==========

Complete name                    : Knockaround Guys 2001 BRRip.MP4
Format                           : MPEG-4
Format profile                   : Base Media
Codec ID                         : isom
File size                        : 1.70 GiB
Duration                         : 1h 31mn
Overall bit rate                 : 2 652 Kbps
Encoded date                     : UTC 2011-01-06 03:52:59

Video
==========
ID                               : 1
Format                           : AVC
Format/Info                      : Advanced Video Codec
Format profile                   : High@L4.0
Format settings, CABAC           : Yes
Format settings, ReFrames        : 4 frames
Codec ID                         : avc1
Codec ID/Info                    : Advanced Video Coding
Duration                         : 1h 31mn
Bit rate mode                    : Variable
Bit rate                         : 2 300 Kbps
Maximum bit rate                 : 9 867 Kbps
Width                            : 1 280 pixels
Height                           : 528 pixels
Display aspect ratio             : 2.40:1
Frame rate mode                  : Constant
Frame rate                       : 23.976 fps
Resolution                       : 24 bits
Colorimetry                      : 4:2:0
Scan type                        : Progressive
Bits/(Pixel*Frame)               : 0.142
Stream size                      : 1.47 GiB (87%)
Writing library                  : x264 core 84 r1400M 20fa784
Encoded date                     : UTC 2011-01-05 22:43:57

Audio
==========
ID                               : 2
Format                           : AAC
Format/Info                      : Advanced Audio Codec
Format version                   : Version 4
Format profile                   : LC
Format settings, SBR             : No
Codec ID                         : 40
Duration                         : 1h 31mn
Bit rate mode                    : Variable
Bit rate                         : 352.8 Kbps
Maximum bit rate                 : 480 Kbps
Channel(s)                       : 6 channels
Channel positions                : Front: L C R, Rear: L R, LFE
Sampling rate                    : 48.0 KHz
Resolution                       : 16 bits
Stream size                      : 228 MiB (13%)
Encoded date                     : UTC 2011-01-06 03:53:52

Subtitles                        : English | Bulgarian | Portuguese


----------------------------------------------------
IMDB Link: http://www.imdb.com/title/tt0211465/
----------------------------------------------------



Screen Shots:
==============    
http://bayimg.com/iaCcnAAdn 
http://bayimg.com/JACCcaadN 
http://bayimg.com/kAccDAaDn 
http://bayimg.com/jAcCgAAdn 
http://bayimg.com/KacClaadN



Plot:
======
Matty Demaret is the son of Mafia boss Benny Chains. Never having been cut out for the family business, he feels there is unfortunately no legitimate place in society for a mobster's son. Still Benny decides, against his better judgement, to let Matty and his pals take a bag of money from Montana to New York for a drop. When Matty's buddy, Johnny Marbles, loses the cash to a pair of teenage stoners, the tiny Montana town is in for trouble. The locals don't take kindly to this group of Brooklyn deviants, forcing the young men to come face to face with the betrayal and violence that is their birthright.                                                            
 




Release Info:
==============
original name .... : Knockaround Guys 2001 BRRip.MP4
ripper.............: Recalled2Life (R2L)
encoder............: Recalled2Life (R2L)
video codec........: H264/.MP4                   
video bitrate......: 2300 Kbps                           
audio codec........: AAC-LC
aspect ratio.......: 2.40:1                              
resolution.........: 1280 x 528                             
genre..............: Comedy | Crime | Drama         
runtime............: 1h 31mn
language...........: English
rating.............: R                             
subtitles..........: English | Bulgarian | Portuguese
sample.............: Yes [24.5MB]
2ch Audio..........: 2ch Audio for XBox Viewers  
Compatibility .....: XBox 360 | PS3 | WD Live          



Source:
========
Knockaround Guys 2001 1080p X264 - FSiHD [6.55 GB]


Notes:
=======
ChattChitto RG Encourages Burning this Film with ConvertXtoDVD.
XBox 360 | PS3 | WD Live - Compatible
Enhanced and Filtered for your viewing pleasure ;)